<!-- izifoot logo - horizontal -->
<svg width="320" height="72" viewBox="0 0 320 72" fill="none" xmlns="http://www.w3.org/2000/svg" role="img" aria-labelledby="title desc">
  <title id="title">izifoot – logo</title>
  <desc id="desc">Icône ballon stylisé bleu-vert avec coche, suivi du mot izifoot</desc>

  <!-- ICON -->
  <g transform="translate(8,8)">
    <!-- Badge circle with gradient -->
    <defs>
      <linearGradient id="g1" x1="0" y1="0" x2="1" y2="1">
        <stop offset="0%" stop-color="#2563eb"/>
        <stop offset="100%" stop-color="#10b981"/>
      </linearGradient>
      <linearGradient id="g2" x1="0" y1="0" x2="1" y2="1">
        <stop offset="0%" stop-color="white" stop-opacity="0.9"/>
        <stop offset="100%" stop-color="white" stop-opacity="0.6"/>
      </linearGradient>
    </defs>

    <circle cx="28" cy="28" r="28" fill="url(#g1)"/>
    <!-- soccer seams (subtle) -->
    <path d="M6 28c6-8 16-12 22-12s16 4 22 12" stroke="url(#g2)" stroke-width="2.2" stroke-linecap="round" opacity="0.9"/>
    <path d="M12 40c6 4 16 6 22 6s16-2 22-6" stroke="url(#g2)" stroke-width="2.2" stroke-linecap="round" opacity="0.85"/>

    <!-- check mark (izi) -->
    <path d="M18 29.5l6.5 6.5 15-15" fill="none" stroke="white" stroke-width="3.2" stroke-linecap="round" stroke-linejoin="round" />
  </g>

  <!-- WORDMARK -->
  <g transform="translate(76, 14)" fill="#0f172a">
    <!-- Utilise currentColor si tu veux piloter via CSS -->
    <g style="color:#0f172a">
      <!-- On reste simple et lisible avec un mot “izifoot” en formes géométriques arrondies -->
      <!-- i -->
      <rect x="0" y="20" width="8" height="24" rx="4" />
      <circle cx="4" cy="12" r="4" />
      <!-- z -->
      <path d="M20 20h24a3 3 0 010 6H32l10 12a3 3 0 01-2.3 5H16a3 3 0 010-6h12L18 25a3 3 0 012-5z"/>
      <!-- i -->
      <rect x="50" y="20" width="8" height="24" rx="4" />
      <circle cx="54" cy="12" r="4" />
      <!-- f -->
      <path d="M74 14a6 6 0 016-6h8a3 3 0 110 6h-8v6h8a3 3 0 010 6h-8v18a3 3 0 11-6 0V14z"/>
      <!-- o o -->
      <circle cx="106" cy="32" r="12"/><circle cx="106" cy="32" r="7" fill="white"/>
      <circle cx="134" cy="32" r="12"/><circle cx="134" cy="32" r="7" fill="white"/>
      <!-- t -->
      <path d="M160 14a3 3 0 013-3h14a3 3 0 110 6h-11v27a3 3 0 11-6 0V17h-0.5a3 3 0 01-3-3z"/>
    </g>
  </g>
</svg>